<?xml version="1.0" encoding="utf-8"?>
<!-- Generator: Adobe Illustrator 22.0.0, SVG Export Plug-In . SVG Version: 6.00 Build 0)  -->
<svg version="1.1" id="Icon_Set" xmlns="http://www.w3.org/2000/svg" xmlns:xlink="http://www.w3.org/1999/xlink" x="0px" y="0px"
	 viewBox="0 0 64 64" style="enable-background:new 0 0 64 64;" xml:space="preserve">
<style type="text/css">
	.st0{fill:#40C4FF;}
	.st1{fill:#263238;}
	.st2{fill:#FFD740;}
	.st3{fill:#FF5252;}
	.st4{fill:#4DB6AC;}
	.st5{fill:#FFFFFF;}
	.st6{fill:#4FC3F7;}
</style>
<g>
	<g>
		<circle class="st3" cx="53.488" cy="14.5" r="8"/>
		<path class="st1" d="M53.488,23c-4.687,0-8.5-3.813-8.5-8.5s3.813-8.5,8.5-8.5s8.5,3.813,8.5,8.5S58.175,23,53.488,23z M53.488,7
			c-4.136,0-7.5,3.364-7.5,7.5s3.364,7.5,7.5,7.5s7.5-3.364,7.5-7.5S57.624,7,53.488,7z"/>
	</g>
	<g>
		<path class="st1" d="M53.5,15.833c-0.072,0-0.145-0.016-0.212-0.047C53.112,15.704,53,15.527,53,15.333V10
			c0-0.276,0.224-0.5,0.5-0.5S54,9.724,54,10v4.266l2.18-1.817c0.213-0.177,0.528-0.148,0.705,0.064
			c0.177,0.212,0.148,0.528-0.064,0.705l-3,2.5C53.729,15.794,53.615,15.833,53.5,15.833z"/>
	</g>
	<g>
		<path class="st1" d="M13.5,5h-5C8.224,5,8,4.776,8,4.5S8.224,4,8.5,4h5C13.776,4,14,4.224,14,4.5S13.776,5,13.5,5z"/>
	</g>
	<g>
		<path class="st1" d="M6.5,5h-1C5.224,5,5,4.776,5,4.5S5.224,4,5.5,4h1C6.776,4,7,4.224,7,4.5S6.776,5,6.5,5z"/>
	</g>
	<g>
		<path class="st1" d="M55.5,60h-5c-0.276,0-0.5-0.224-0.5-0.5s0.224-0.5,0.5-0.5h5c0.276,0,0.5,0.224,0.5,0.5S55.776,60,55.5,60z"
			/>
	</g>
	<g>
		<path class="st1" d="M58.5,60h-1c-0.276,0-0.5-0.224-0.5-0.5s0.224-0.5,0.5-0.5h1c0.276,0,0.5,0.224,0.5,0.5S58.776,60,58.5,60z"
			/>
	</g>
	<g>
		<path class="st1" d="M8.675,38.153c-0.226,0-0.43-0.154-0.485-0.383C7.732,35.875,7.5,33.934,7.5,32C7.5,18.491,18.491,7.5,32,7.5
			c3.663,0,7.19,0.792,10.483,2.354c0.25,0.118,0.356,0.417,0.237,0.666c-0.118,0.25-0.415,0.355-0.666,0.237
			C38.896,9.259,35.514,8.5,32,8.5C19.042,8.5,8.5,19.042,8.5,32c0,1.855,0.223,3.718,0.662,5.536
			c0.065,0.268-0.1,0.539-0.369,0.603C8.754,38.149,8.714,38.153,8.675,38.153z"/>
	</g>
	<g>
		<path class="st1" d="M32,56.5c-3.663,0-7.19-0.792-10.483-2.354c-0.25-0.118-0.356-0.417-0.237-0.666
			c0.119-0.249,0.416-0.355,0.666-0.237C25.104,54.741,28.486,55.5,32,55.5c12.958,0,23.5-10.542,23.5-23.5
			c0-1.855-0.223-3.717-0.662-5.536c-0.065-0.268,0.1-0.539,0.369-0.603c0.266-0.066,0.539,0.1,0.603,0.369
			c0.458,1.895,0.69,3.836,0.69,5.77C56.5,45.509,45.509,56.5,32,56.5z"/>
	</g>
	<g>
		<path class="st1" d="M32,35.5c-4.687,0-8.5-3.813-8.5-8.5s3.813-8.5,8.5-8.5s8.5,3.813,8.5,8.5S36.687,35.5,32,35.5z M32,19.5
			c-4.136,0-7.5,3.364-7.5,7.5s3.364,7.5,7.5,7.5s7.5-3.364,7.5-7.5S36.136,19.5,32,19.5z"/>
	</g>
	<g>
		<path class="st2" d="M37.547,22.374l0.596-0.496C36.676,20.12,34.469,19,32,19c-4.418,0-8,3.582-8,8h0.755
			C29.429,27,33.955,25.363,37.547,22.374z"/>
		<path class="st1" d="M24.755,27.5H24c-0.276,0-0.5-0.224-0.5-0.5c0-4.687,3.813-8.5,8.5-8.5c2.526,0,4.905,1.115,6.527,3.058
			c0.085,0.102,0.126,0.233,0.114,0.366c-0.012,0.132-0.076,0.254-0.178,0.339l-0.596,0.496l0,0
			C34.192,25.816,29.536,27.5,24.755,27.5z M24.517,26.5h0.239c4.547,0,8.976-1.602,12.472-4.51l0.198-0.165
			C36.012,20.342,34.062,19.5,32,19.5C28.033,19.5,24.775,22.597,24.517,26.5z M37.547,22.375h0.01H37.547z"/>
	</g>
	<g>
		<path class="st1" d="M32.004,40.968c-0.167,0-0.322-0.083-0.415-0.221l-3.003-4.463c-0.055-0.083-0.085-0.18-0.085-0.279
			L28.5,34.41c0-0.167,0.083-0.322,0.221-0.415c0.139-0.093,0.313-0.11,0.468-0.049c1.799,0.732,3.817,0.735,5.625,0.006
			c0.153-0.061,0.328-0.044,0.467,0.049c0.138,0.093,0.22,0.248,0.22,0.414l0.001,1.579c0,0.1-0.029,0.196-0.084,0.279l-2.997,4.473
			C32.327,40.885,32.171,40.968,32.004,40.968L32.004,40.968z M29.5,35.853l2.502,3.719l2.498-3.728l0-0.719
			c-1.625,0.501-3.38,0.498-5-0.005L29.5,35.853z"/>
	</g>
	<g>
		<path class="st1" d="M32.004,40.968L32.004,40.968H28.5c-0.142,0-0.278-0.061-0.373-0.167c-0.095-0.106-0.14-0.248-0.125-0.389
			l0.5-4.463c0.023-0.208,0.174-0.38,0.378-0.43c0.204-0.048,0.417,0.033,0.534,0.207l2.588,3.845l2.581-3.854
			c0.117-0.174,0.33-0.256,0.534-0.208c0.204,0.05,0.355,0.222,0.378,0.43l0.5,4.472c0.016,0.142-0.029,0.283-0.125,0.389
			c-0.095,0.106-0.23,0.167-0.373,0.167H32.004L32.004,40.968z M32.94,39.968h2l-0.286-2.559L32.94,39.968z M29.059,39.968h2.005
			l-1.719-2.554L29.059,39.968z"/>
	</g>
	<g>
		<path class="st1" d="M32.004,40.968c-0.167,0-0.322-0.083-0.415-0.221l-2.769-4.115l-5.647,2.509
			c-0.342,0.152-0.678,0.361-0.999,0.621c-0.215,0.174-0.53,0.14-0.703-0.074c-0.174-0.214-0.141-0.529,0.074-0.703
			c0.389-0.315,0.8-0.57,1.222-0.757l6.031-2.68c0.222-0.096,0.482-0.024,0.618,0.178l2.587,3.845l2.582-3.854
			c0.136-0.201,0.397-0.276,0.619-0.178l6.034,2.688c0.419,0.187,0.83,0.441,1.219,0.757c0.214,0.174,0.248,0.489,0.074,0.704
			c-0.173,0.213-0.489,0.248-0.704,0.074c-0.321-0.261-0.657-0.47-0.997-0.621l-5.649-2.517l-2.762,4.123
			C32.327,40.885,32.171,40.968,32.004,40.968L32.004,40.968z"/>
	</g>
	<g>
		<path class="st1" d="M32.004,53.5c-0.276,0-0.5-0.224-0.5-0.5V40.468c0-0.276,0.224-0.5,0.5-0.5s0.5,0.224,0.5,0.5V53
			C32.504,53.276,32.28,53.5,32.004,53.5z"/>
	</g>
	<g>
		<path class="st1" d="M44.004,49.614c-0.276,0-0.5-0.224-0.5-0.5v-5.863c0-1.775-1.047-3.388-2.668-4.111l-5.65-2.517l-2.762,4.123
			c-0.093,0.138-0.249,0.222-0.415,0.222h0c-0.167,0-0.322-0.083-0.415-0.221l-2.77-4.115l-5.647,2.509
			c-1.34,0.595-2.308,1.81-2.589,3.249c-0.054,0.27-0.313,0.447-0.587,0.395c-0.271-0.053-0.448-0.315-0.395-0.587
			c0.344-1.759,1.527-3.243,3.165-3.971l6.031-2.68c0.223-0.096,0.482-0.024,0.618,0.178l2.588,3.845l2.582-3.854
			c0.136-0.201,0.397-0.276,0.619-0.178l6.035,2.688c1.981,0.883,3.261,2.855,3.261,5.024v5.863
			C44.504,49.39,44.28,49.614,44.004,49.614z"/>
	</g>
	<g>
		<circle class="st2" cx="10.488" cy="49.5" r="8"/>
		<path class="st1" d="M10.488,58c-4.687,0-8.5-3.813-8.5-8.5s3.813-8.5,8.5-8.5s8.5,3.813,8.5,8.5S15.175,58,10.488,58z M10.488,42
			c-4.136,0-7.5,3.364-7.5,7.5s3.364,7.5,7.5,7.5s7.5-3.364,7.5-7.5S14.624,42,10.488,42z"/>
	</g>
	<g>
		<path class="st1" d="M10.488,47.5c-0.276,0-0.5-0.224-0.5-0.5v-1.5c0-0.276,0.224-0.5,0.5-0.5s0.5,0.224,0.5,0.5V47
			C10.988,47.276,10.764,47.5,10.488,47.5z"/>
	</g>
	<g>
		<path class="st1" d="M10.488,54c-0.276,0-0.5-0.224-0.5-0.5V52c0-0.276,0.224-0.5,0.5-0.5s0.5,0.224,0.5,0.5v1.5
			C10.988,53.776,10.764,54,10.488,54z"/>
	</g>
	<g>
		<path class="st1" d="M11.238,52.5h-2.75c-0.276,0-0.5-0.224-0.5-0.5s0.224-0.5,0.5-0.5h2.75c0.414,0,0.75-0.336,0.75-0.75
			S11.651,50,11.238,50h-1.5c-0.965,0-1.75-0.785-1.75-1.75s0.785-1.75,1.75-1.75h2.25c0.276,0,0.5,0.224,0.5,0.5
			s-0.224,0.5-0.5,0.5h-2.25c-0.414,0-0.75,0.336-0.75,0.75S9.324,49,9.738,49h1.5c0.965,0,1.75,0.785,1.75,1.75
			S12.203,52.5,11.238,52.5z"/>
	</g>
</g>
</svg>
