<svg xmlns="http://www.w3.org/2000/svg" width="128" height="128" viewBox="0 0 128 128">
  <title>INTERVIEW</title>
  <g>
    <g>
      <path d="M46.5,78.81h0a20.5,20.5,0,0,1,20.5,20.5v6.039a0,0,0,0,1,0,0H26a0,0,0,0,1,0,0V99.315A20.5,20.5,0,0,1,46.5,78.81Z" fill="#318fb5"/>
      <ellipse cx="46.505" cy="65.396" rx="13.465" ry="13.414" fill="#f7d6bf"/>
      <path d="M85.933,49.585h0a15.733,15.733,0,0,1,15.733,15.733v4.634a0,0,0,0,1,0,0H70.2a0,0,0,0,1,0,0V65.319A15.733,15.733,0,0,1,85.933,49.585Z" fill="#2086a5"/>
      <ellipse cx="85.933" cy="39.293" rx="10.332" ry="10.293" fill="#eabfa2"/>
      <path d="M81.591,107.1h-61.5a1.75,1.75,0,1,1,0-3.5H80.655l21.319-31.9H65.333a1.75,1.75,0,0,1,0-3.5h39.915a1.749,1.749,0,0,1,1.455,2.722l-23.657,35.4A1.751,1.751,0,0,1,81.591,107.1Z" fill="#2086a5"/>
      <path d="M64,41.68l-7.125-3.673H43.5A5.247,5.247,0,0,1,38.25,32.76V30.389A5.247,5.247,0,0,1,43.5,25.143H58.753A5.247,5.247,0,0,1,64,30.389Z" fill="#b8d8d3"/>
    </g>
    <g>
      <path d="M26.263,95.586a1.749,1.749,0,0,0,2.149-1.228c.151-.555.332-1.114.538-1.659a1.75,1.75,0,0,0-3.275-1.235c-.244.648-.46,1.312-.64,1.974A1.748,1.748,0,0,0,26.263,95.586Z" fill="#172956"/>
      <path d="M106.792,69.128a1.75,1.75,0,0,0-1.544-.925h-1.831V65.319a17.51,17.51,0,0,0-10.662-16.1,12.082,12.082,0,1,0-13.643,0,17.51,17.51,0,0,0-10.662,16.1V68.2H65.333a1.75,1.75,0,0,0,0,3.5h36.641L80.655,103.6h-11.9V99.315A22.291,22.291,0,0,0,54.222,78.442a15.215,15.215,0,1,0-15.425.006,22.3,22.3,0,0,0-8.575,5.7,1.75,1.75,0,0,0,2.561,2.386A18.754,18.754,0,0,1,65.259,99.315V103.6H27.75v-2.289a1.75,1.75,0,0,0-3.5,0V103.6H20.091a1.75,1.75,0,1,0,0,3.5h61.5a1.751,1.751,0,0,0,1.455-.778l23.657-35.4A1.75,1.75,0,0,0,106.792,69.128Zm-72-3.732A11.715,11.715,0,1,1,46.5,77.06,11.7,11.7,0,0,1,34.79,65.4Zm42.562-26.1a8.582,8.582,0,1,1,8.582,8.543A8.572,8.572,0,0,1,77.352,39.292ZM71.95,68.2V65.319a13.984,13.984,0,1,1,27.967,0V68.2Z" fill="#172956"/>
      <path d="M43.5,39.757H56.45L63.2,43.236A1.751,1.751,0,0,0,65.75,41.68V30.389a7,7,0,0,0-7-7H43.5a7,7,0,0,0-7,7V32.76A7.005,7.005,0,0,0,43.5,39.757ZM40,30.389a3.5,3.5,0,0,1,3.5-3.5H58.753a3.5,3.5,0,0,1,3.5,3.5v8.42l-4.573-2.358a1.761,1.761,0,0,0-.8-.194H43.5a3.5,3.5,0,0,1-3.5-3.5Z" fill="#172956"/>
    </g>
  </g>
</svg>
