<?xml version="1.0" encoding="utf-8"?>
<!-- Generator: Adobe Illustrator 21.0.0, SVG Export Plug-In . SVG Version: 6.00 Build 0)  -->
<svg version="1.1" id="Layer_1" xmlns="http://www.w3.org/2000/svg" xmlns:xlink="http://www.w3.org/1999/xlink" x="0px" y="0px"
	 viewBox="0 0 512 512" style="enable-background:new 0 0 512 512;" xml:space="preserve">
<style type="text/css">
	.st0{fill:#71CCE0;}
	.st1{fill:#DFDFDF;}
	.st2{fill:#4A555F;}
	.st3{fill:#FFD452;}
	.st4{fill:#F58E6F;}
	.st5{fill:#FFFFFF;}
	.st6{fill:none;}
</style>
<g>
	<g>
		<g>
			<path class="st1" d="M387.021,252.92h-35.188c-8.947,0-17.252,4.463-22.206,11.915l-26.818,40.526l-3.16,4.762h-29.445
				c-1.494,0-2.882,0.448-4.035,1.239c0.406,1.559,0.64,3.203,0.64,4.911c0,2.328-0.427,4.57-1.217,6.641
				c1.239,1.046,2.861,1.665,4.612,1.665h51.01c5.849,0,10.591,4.741,10.591,10.59h36.064v25.622h-12.235v31.111h25.687
				c16.167,0,29.274-13.106,29.274-29.274v-86.135C410.594,263.474,400.04,252.92,387.021,252.92z"/>
		</g>
	</g>
	<g>
		<g>
			<g>
				<path class="st2" d="M360.618,164.325c-22.36,0-40.551,18.191-40.551,40.551c0,10.831,4.218,21.014,11.877,28.673
					s17.843,11.877,28.674,11.877c22.36,0,40.551-18.191,40.551-40.55C401.169,182.516,382.978,164.325,360.618,164.325z
					 M360.618,239.05c-9.128,0-17.711-3.555-24.166-10.009c-6.454-6.455-10.009-15.037-10.009-24.165
					c0-18.844,15.332-34.175,34.176-34.175s34.176,15.331,34.176,34.175S379.462,239.05,360.618,239.05z"/>
			</g>
		</g>
	</g>
	<g>
		<g>
			<path class="st3" d="M360.618,178.403c-14.597,0-26.473,11.876-26.473,26.473s11.876,26.473,26.473,26.473
				c14.598,0,26.474-11.876,26.474-26.473S375.216,178.403,360.618,178.403z"/>
		</g>
	</g>
	<g>
		<g>
			<path class="st2" d="M418.449,267.501l-24.553,47.252c-5.548,10.678-16.47,17.31-28.504,17.31l-34.578,0
				c-7.379,0-13.382-6.003-13.382-13.382s6.003-13.382,13.382-13.382l8.805-0.001c14.451,0,27.552-7.973,34.193-20.808
				l10.018-19.364l-5.664-2.929l-10.016,19.364c-5.541,10.709-16.473,17.362-28.531,17.362l-8.805,0
				c-10.894,0-19.757,8.863-19.757,19.758c0,10.894,8.863,19.758,19.757,19.758l34.578,0c14.422,0,27.512-7.95,34.161-20.746
				l24.553-47.252L418.449,267.501z"/>
		</g>
	</g>
	<g>
		<g>
			<path class="st2" d="M387.021,239.056h-35.188c-13.609,0-26.231,6.774-33.767,18.125l-25.873,39.077h-21.989
				c-4.047,0-7.967,1.151-11.337,3.329l3.459,5.354c2.338-1.51,5.062-2.308,7.878-2.308h25.414l27.761-41.929
				c6.35-9.563,16.987-15.272,28.454-15.272h35.188c17.128,0,31.062,13.934,31.062,31.061v86.113
				c0,20.282-16.492,36.783-36.762,36.783h-24.727l-4.127,35.769l6.334,0.73l3.475-30.124h19.044
				c23.786,0,43.138-19.361,43.138-43.159v-86.113C424.458,255.85,407.664,239.056,387.021,239.056z"/>
		</g>
	</g>
	<g>
		<g>
			<path class="st2" d="M270.204,332.066c-0.504,0-1.01-0.016-1.5-0.068c-2.766-0.292-5.376-1.348-7.548-3.053l-3.937,5.015
				c3.116,2.446,6.856,3.96,10.812,4.377c0.708,0.076,1.441,0.104,2.174,0.104h61.601v-6.375H270.204z"/>
		</g>
	</g>
	<g>
		<g>
			<path class="st2" d="M416.117,374.495c-4.99,14.648-18.727,24.643-34.183,24.872l0.096,6.374
				c18.142-0.269,34.266-12,40.122-29.191L416.117,374.495z"/>
		</g>
	</g>
	<g>
		<g>
			<polygon class="st4" points="349.764,242.239 356.277,257.615 364.945,257.615 371.339,242.239 			"/>
		</g>
	</g>
	<g>
		<g>
			<path class="st4" d="M364.948,257.618h-8.677l-8.396,43.507c8.94-2.157,16.793-7.731,21.718-15.672c0,0,0,0,0-0.017
				c0.456-0.754,0.754-1.263,0.859-1.438c0.018-0.052,0.035-0.069,0.035-0.069L364.948,257.618z"/>
		</g>
	</g>
	<g>
		<g>
			<g>
				<path class="st2" d="M344.951,239.051l9.215,21.752h12.906l9.044-21.752H344.951z M362.818,254.428h-4.429l-3.812-9.001h11.985
					L362.818,254.428z"/>
			</g>
		</g>
	</g>
	<g>
		<g>
			<g>
				<path class="st2" d="M373.606,283.272l-5.539-26.312c-0.31-1.475-1.612-2.531-3.119-2.531h-8.677
					c-1.527,0-2.84,1.084-3.129,2.584l-8.397,43.507c-0.205,1.065,0.144,2.16,0.928,2.909c0.601,0.573,1.392,0.883,2.202,0.883
					c0.249,0,0.5-0.029,0.747-0.089c9.918-2.393,18.328-8.462,23.68-17.09c0.049-0.08,0.095-0.163,0.137-0.247l0.751-1.257
					c0.042-0.07,0.081-0.141,0.116-0.214C373.649,284.767,373.762,284.01,373.606,283.272z M366.864,283.788
					c-0.032,0.054-0.063,0.109-0.092,0.164c-3.548,5.638-8.673,9.948-14.744,12.475l6.875-35.622h3.459l4.751,22.568
					L366.864,283.788z"/>
			</g>
		</g>
	</g>
	<g>
		<g>
			<g>
				<path class="st2" d="M178.268,357.602l51.064,27.204c7.611,4.057,13.072,11.196,14.982,19.59l16.826,73.645
					c1.465,6.398,0.219,13.073-3.42,18.312c-3.494,5.031-8.778,8.246-14.873,9.053c-1.081,0.141-2.064,0.209-3.005,0.209v6.375
					h118.98V357.602H178.268z M352.446,505.615h-94.643c1.937-1.605,3.67-3.489,5.154-5.626c4.659-6.71,6.262-15.228,4.399-23.37
					l-16.826-73.641c-2.32-10.197-8.953-18.87-18.2-23.799l-28.536-15.202h148.652V505.615z"/>
			</g>
		</g>
	</g>
	<g>
		<g>
			<path class="st4" d="M233.577,371.416l2.254,1.201c11.15,5.944,19.152,16.409,21.951,28.703l16.825,73.639
				c1.801,7.867,1.003,16.029-2.152,23.219h72.554V371.416H233.577z"/>
		</g>
	</g>
	<g>
		<g>
			<g>
				<path class="st2" d="M174.948,331.98v23.849l15.287,8.149h180.823V331.98H174.948z M364.681,357.602H191.828l-10.505-5.6
					v-13.647h183.359V357.602z"/>
			</g>
		</g>
	</g>
	<g>
		<g>
			<polygon class="st4" points="188.761,345.794 188.761,347.538 193.687,350.164 357.243,350.164 357.243,345.794 			"/>
		</g>
	</g>
	<g>
		<g>
			<path class="st2" d="M268.368,331.98l-0.344,6.357c0.71,0.077,1.445,0.104,2.179,0.104h64.789v-6.461H268.368z"/>
		</g>
	</g>
	<g>
		<g>
			<g>
				<path class="st2" d="M447.973,202.512H418.09v203.241l29.884,0.001L447.973,202.512z M424.465,399.378v-190.49h17.132
					l0.001,190.49L424.465,399.378z"/>
			</g>
		</g>
	</g>
	<g>
		<g>
			<polygon class="st2" points="441.598,402.566 441.598,505.625 434.631,505.624 424.45,402.253 418.105,402.878 428.854,511.999 
				447.974,512 447.974,402.566 			"/>
		</g>
	</g>
	<g>
		<g>
			<g>
				<path class="st2" d="M416.853,372.335l-0.736,2.16c-4.989,14.647-18.727,24.643-34.183,24.873l0.046,6.375l42.478,0.023v-33.431
					H416.853z M418.083,399.387l-14.205-0.008c5.732-3.52,10.626-8.362,14.205-14.18V399.387z"/>
			</g>
		</g>
	</g>
	<g>
		<g>
			<path class="st3" d="M367.448,13.864H155.671c-18.056,0-32.746,14.69-32.746,32.747v76.385l14.313-16.793h230.21
				c18.056,0,32.746-14.689,32.746-32.745V46.61C400.195,28.554,385.505,13.864,367.448,13.864z"/>
		</g>
	</g>
	<g>
		<g>
			<g>
				<path class="st2" d="M248.724,58.239h6.375v-6.375h-6.375V58.239z M261.475,58.239h6.375v-6.375h-6.375V58.239z M235.974,58.239
					h6.375v-6.375h-6.375V58.239z M274.226,58.239h6.375v-6.375h-6.375V58.239z M223.223,58.239h6.375v-6.375h-6.375V58.239z
					 M325.229,58.239h6.375v-6.375h-6.375V58.239z M337.98,58.239h6.375v-6.375h-6.375V58.239z M350.731,51.864v6.375h6.375v-6.375
					H350.731z M312.479,58.239h6.375v-6.375h-6.375V58.239z M286.977,58.239h6.375v-6.375h-6.375V58.239z M299.728,58.239h6.375
					v-6.375h-6.375V58.239z"/>
			</g>
		</g>
	</g>
	<g>
		<g>
			<g>
				<path class="st2" d="M260.31,87.074h6.375v-6.375h-6.375V87.074z M209.307,87.074h6.375v-6.375h-6.375V87.074z M247.559,87.074
					h6.375v-6.375h-6.375V87.074z M234.808,87.074h6.375v-6.375h-6.375V87.074z M171.054,87.074h6.375v-6.375h-6.375V87.074z
					 M196.556,87.074h6.375v-6.375h-6.375V87.074z M183.805,87.074h6.375v-6.375h-6.375V87.074z M222.057,87.074h6.375v-6.375
					h-6.375V87.074z M336.815,87.074h6.375v-6.375h-6.375V87.074z M349.566,80.698v6.375h6.375v-6.375H349.566z M324.064,87.074
					h6.375v-6.375h-6.375V87.074z M298.562,87.074h6.375v-6.375h-6.375V87.074z M311.313,87.074h6.375v-6.375h-6.375V87.074z
					 M285.812,87.074h6.375v-6.375h-6.375V87.074z M273.061,87.074h6.375v-6.375h-6.375V87.074z"/>
			</g>
		</g>
	</g>
	<g>
		<g>
			<g>
				<path class="st2" d="M367.449,0H155.671c-25.7,0-46.609,20.909-46.609,46.61v114.023l34.575-40.568h223.812
					c25.7,0,46.609-20.908,46.609-46.609V46.61C414.058,20.909,393.149,0,367.449,0z M407.682,73.457
					c0,22.185-18.048,40.233-40.233,40.233H140.694l-25.257,29.634V46.61c0-22.186,18.049-40.235,40.233-40.235h211.778
					c22.186,0,40.233,18.049,40.233,40.235V73.457z"/>
			</g>
		</g>
	</g>
	<g>
		<g>
			<g>
				<path class="st2" d="M138.426,166.225c-21.43,0.001-38.864,17.435-38.864,38.864s17.434,38.864,38.864,38.864
					c21.43,0,38.865-17.434,38.865-38.864C177.291,183.659,159.856,166.225,138.426,166.225z M138.426,237.578
					c-17.914,0-32.488-14.574-32.488-32.488c0-17.914,14.574-32.488,32.488-32.489c17.914,0,32.489,14.575,32.489,32.489
					S156.34,237.578,138.426,237.578z"/>
			</g>
		</g>
	</g>
	<g>
		<g>
			<path class="st3" d="M138.427,179.907c-13.886,0-25.183,11.298-25.183,25.183c0,6.727,2.619,13.05,7.376,17.806
				c4.757,4.756,11.081,7.376,17.807,7.376c13.885,0,25.182-11.297,25.182-25.182S152.312,179.907,138.427,179.907z"/>
		</g>
	</g>
	<g>
		<g>
			<g>
				<path class="st2" d="M168.015,415.467h-45.433l10.151,7.176c4.689,3.322,7.78,8.493,8.479,14.182l6.257,51.503
					c1.656,13.523,12.787,23.662,25.911,23.662c0.827,0.004,1.651-0.043,2.475-0.122l3.233-0.309L168.015,415.467z M153.798,487.557
					l-6.257-51.505c-0.649-5.286-2.869-10.227-6.291-14.21h21.083l9.651,83.721C162.687,504.866,155,497.379,153.798,487.557z"/>
			</g>
		</g>
	</g>
	<g>
		<g>
			<path class="st1" d="M165.174,418.654h-16.889c3.608,4.761,5.936,10.462,6.683,16.505l6.256,51.501
				c0.79,6.426,6.15,11.466,12.192,11.466h0.085c0.278,0,0.555-0.022,0.833-0.065L165.174,418.654z"/>
		</g>
	</g>
	<g>
		<g>
			<path class="st1" d="M178.135,288.061l28.078,33.762c2.562,3.182,6.384,4.996,10.462,4.996h31.195
				c5.829,0,10.57-4.739,10.57-10.548c0-5.829-4.74-10.569-10.57-10.569h-11.188c-10.292,0-19.772-5.167-25.366-13.815
				l-17.551-27.159c-6.299-9.758-17.017-15.587-28.633-15.587h-36.106l-21.245,0.513c-2.818,0-8.882,1.494-15.203,5.039v141.001
				l26.049,0.007h67.644l1.345,11.039c2.114-0.94,4.441-1.43,6.747-1.43c7.815,0,14.69,5.53,16.355,13.153l15.011,68.455
				c1.537,6.597,7.345,11.21,14.135,11.21c0.662,0,1.324-0.044,1.986-0.128c3.993-0.534,7.43-2.626,9.715-5.914
				c2.456-3.524,3.288-8.029,2.285-12.385l-16.826-73.622c-1.43-6.298-5.53-11.636-11.209-14.669l-50.348-26.817l-1.132,0.096
				v-0.622h-5.904v-76.004H178.135z"/>
		</g>
	</g>
	<g>
		<g>
			<g>
				<path class="st2" d="M64.026,202.512v219.322h31.735V202.512H64.026z M89.386,415.459H70.402V208.888h18.984V415.459z"/>
			</g>
		</g>
	</g>
	<g>
		<g>
			<polygon class="st2" points="89.401,418.335 80.804,505.622 70.402,505.622 70.402,418.647 64.026,418.647 64.026,511.998 
				86.582,511.998 95.746,418.959 			"/>
		</g>
	</g>
	<g>
		<g>
			<g>
				<path class="st2" d="M189.088,392.506H89.386v29.329h72.946l10.408,90.163h30.882L189.088,392.506z M168.014,415.459H95.761
					v-16.578h87.679l12.983,106.742h-18.002L168.014,415.459z"/>
			</g>
		</g>
	</g>
	<g>
		<g>
			<path class="st2" d="M267.356,476.62l-16.826-73.642c-2.32-10.196-8.953-18.87-18.199-23.798l-51.009-27.178v-52.546h-6.375
				v56.373l54.385,28.977c7.611,4.057,13.072,11.196,14.982,19.59l16.826,73.645c1.465,6.398,0.219,13.073-3.42,18.312
				c-3.494,5.031-8.779,8.247-14.885,9.055c-11.317,1.517-21.805-5.701-24.39-16.74l-15.033-68.609
				c-0.944-4.276-4.665-7.262-9.049-7.262c-0.914,0-1.84,0.146-2.749,0.433l-2.521-20.717H92.578v6.375h90.869l3.666,30.182
				l4.771-8.442c0.27-0.477,0.669-0.865,1.112-1.101c0.46-0.235,0.918-0.354,1.366-0.354c1.12,0,2.481,0.708,2.822,2.256
				l15.042,68.648c3.05,13.025,14.546,21.909,27.595,21.908c1.272,0,2.56-0.085,3.855-0.258c7.904-1.047,14.75-5.215,19.281-11.738
				C267.616,493.28,269.219,484.761,267.356,476.62z"/>
		</g>
	</g>
	<g>
		<g>
			<path class="st2" d="M269.249,310.535c-1.008-3.76-2.995-7.189-5.736-9.905c-0.289-0.288-0.58-0.573-0.896-0.832l-4.039,4.933
				c0.152,0.125,0.288,0.267,0.438,0.417c1.95,1.933,3.36,4.366,4.07,7.014c0.357,1.375,0.537,2.758,0.537,4.11
				c0,1.898-0.339,3.75-1.02,5.537c-1.036,2.808-2.876,5.26-5.324,7.091l3.819,5.105c3.436-2.57,6.025-6.025,7.474-9.958
				c0.947-2.483,1.427-5.099,1.427-7.776C269.998,314.379,269.748,312.456,269.249,310.535z"/>
		</g>
	</g>
	<g>
		<g>
			<path class="st2" d="M269.249,310.535c-1.008-3.76-2.995-7.189-5.736-9.905c-0.289-0.288-0.58-0.573-0.896-0.832l-4.039,4.933
				c0.152,0.125,0.288,0.267,0.438,0.417c1.95,1.933,3.36,4.366,4.07,7.014c0.357,1.375,0.537,2.758,0.537,4.11
				c0,1.898-0.339,3.75-1.02,5.537c-1.036,2.808-2.876,5.26-5.324,7.091l3.819,5.105c3.436-2.57,6.025-6.025,7.474-9.958
				c0.947-2.483,1.427-5.099,1.427-7.776C269.998,314.379,269.748,312.456,269.249,310.535z"/>
		</g>
	</g>
	<g>
		<g>
			<path class="st2" d="M263.52,300.636c-4.161-4.186-9.719-6.492-15.649-6.492h-11.188c-6.352,0-12.199-3.182-15.643-8.515
				l-17.572-27.179c-8.436-13.067-22.768-20.868-38.337-20.868l-36.293,0.001l-21.059,0.533c-4.655,0-10.677,1.529-16.524,4.195
				l2.644,5.801c4.972-2.267,10.161-3.62,13.961-3.621l21.058-0.533h36.212c13.395,0,25.724,6.711,32.981,17.952l17.573,27.18
				c4.623,7.157,12.472,11.429,20.997,11.429h11.188c4.22,0,8.172,1.637,11.141,4.625c2.973,2.955,4.61,6.907,4.61,11.127
				c0,8.673-7.066,15.73-15.752,15.73h-31.195c-5.664,0-10.946-2.518-14.496-6.909l-31.621-39.116l-4.96,4.006l31.623,39.118
				c4.766,5.895,11.856,9.276,19.454,9.276h31.195c12.201,0,22.127-9.916,22.127-22.105
				C269.998,310.341,267.692,304.783,263.52,300.636z"/>
		</g>
	</g>
	<g>
		<g>
			<path class="st2" d="M187.36,35.57v-1.865c0-4.4-3.58-7.98-7.981-7.98h-6.84c-4.4,0-7.98,3.58-7.98,7.98v18.381
				c0,4.4,3.58,7.98,7.98,7.98h6.84c4.401,0,7.981-3.58,7.981-7.98V50.98h-6.375v1.106c0,0.885-0.72,1.605-1.605,1.605h-6.84
				c-0.884,0-1.604-0.72-1.604-1.605V33.705c0-0.885,0.72-1.605,1.604-1.605h6.84c0.885,0,1.605,0.72,1.605,1.605v1.865H187.36z"/>
		</g>
	</g>
	<g>
		<g>
			<path class="st2" d="M211.69,25.315l-6.253,20.415l-6.102-20.213l-6.104,1.843l9.131,30.249c0.406,1.343,1.642,2.264,3.046,2.266
				h0.006c1.401,0,2.638-0.915,3.047-2.254l9.323-30.439L211.69,25.315z"/>
		</g>
	</g>
</g>
</svg>
