<?xml version="1.0" encoding="utf-8"?>
<!-- Generator: Adobe Illustrator 21.0.0, SVG Export Plug-In . SVG Version: 6.00 Build 0)  -->
<svg version="1.1" id="Layer_1" xmlns="http://www.w3.org/2000/svg" xmlns:xlink="http://www.w3.org/1999/xlink" x="0px" y="0px"
	 viewBox="0 0 512 512" style="enable-background:new 0 0 512 512;" xml:space="preserve">
<style type="text/css">
	.st0{fill:#71CCE0;}
	.st1{fill:#DFDFDF;}
	.st2{fill:#4A555F;}
	.st3{fill:#FFD452;}
	.st4{fill:#F58E6F;}
	.st5{fill:#FFFFFF;}
	.st6{fill:none;}
</style>
<g>
	<g>
		<g>
			<g>
				<path class="st0" d="M257.132,26.593c-44.103,0-79.994,35.892-79.994,79.995s35.892,79.974,79.994,79.974
					c44.103,0,79.974-35.871,79.974-79.974S301.235,26.593,257.132,26.593z M311.229,111.771l-21.523,8.439l9.248,21.191
					l-0.477,0.456l-5.889,5.909l-21.191-9.248l-8.439,21.523h-8.999l-8.48-21.523l-21.191,9.248l-0.208-0.249l-5.599-5.578
					l-1.887-1.866l9.206-21.212l-21.481-8.46v-8.999l21.481-8.439l-9.206-21.17l0.477-0.498l5.868-5.868l21.212,9.206l8.439-21.502
					h8.999l8.48,21.502l21.191-9.206l7.693,7.693l-9.248,21.17l21.523,8.48V111.771z"/>
			</g>
		</g>
	</g>
	<g>
		<g>
			<g>
				<path class="st2" d="M72.268,323.681c-20.632,0-37.416,16.784-37.416,37.416s16.784,37.417,37.416,37.417
					s37.418-16.786,37.418-37.417S92.899,323.681,72.268,323.681z M72.268,392.294c-17.201,0-31.195-13.996-31.195-31.197
					s13.994-31.195,31.195-31.195s31.197,13.994,31.197,31.195S89.469,392.294,72.268,392.294z"/>
			</g>
		</g>
	</g>
	<g>
		<g>
			<path class="st3" d="M72.269,336.737c-13.433,0-24.362,10.928-24.362,24.36c0,13.432,10.929,24.36,24.362,24.36
				s24.36-10.928,24.36-24.36C96.629,347.665,85.702,336.737,72.269,336.737z"/>
		</g>
	</g>
	<g>
		<g>
			<path class="st2" d="M96.848,392.294H44.154C19.807,392.294,0,412.101,0,436.448v62.433h6.22v-62.433
				c0-20.917,17.017-37.934,37.934-37.934h52.693c20.917,0,37.934,17.017,37.934,37.934v62.433h6.22v-62.433
				C141.002,412.101,121.195,392.294,96.848,392.294z"/>
		</g>
	</g>
	<g>
		<g>
			<path class="st1" d="M96.849,405.35H44.155c-17.147,0-31.099,13.951-31.099,31.099v62.434h114.891v-62.434
				C127.947,419.301,113.996,405.35,96.849,405.35z"/>
		</g>
	</g>
	<g>
		<g>
			<rect x="20.502" y="459.53" class="st2" width="6.22" height="39.352"/>
		</g>
	</g>
	<g>
		<g>
			<rect x="114.26" y="459.53" class="st2" width="6.22" height="39.352"/>
		</g>
	</g>
	<g>
		<g>
			<g>
				<path class="st2" d="M259.383,276.222c-25.85,0-46.878,21.03-46.878,46.877s21.028,46.877,46.878,46.877
					c25.847,0,46.876-21.028,46.876-46.876C306.258,297.251,285.23,276.222,259.383,276.222z M259.383,363.755
					c-22.419,0-40.657-18.238-40.657-40.656s18.238-40.656,40.657-40.656c22.417,0,40.656,18.239,40.656,40.657
					C300.038,345.517,281.8,363.755,259.383,363.755z"/>
			</g>
		</g>
	</g>
	<g>
		<g>
			<path class="st3" d="M259.383,289.699c-18.416,0-33.4,14.983-33.4,33.399s14.984,33.399,33.4,33.399s33.398-14.982,33.398-33.398
				C292.781,304.683,277.799,289.699,259.383,289.699z"/>
		</g>
	</g>
	<g>
		<g>
			<path class="st2" d="M290.74,363.755h-67.226c-30.588,0-55.473,24.886-55.473,55.476v79.65h6.22v-79.65
				c0-27.16,22.095-49.255,49.253-49.255h67.226c27.158,0,49.253,22.095,49.253,49.255v79.65h6.22v-79.65
				C346.213,388.641,321.328,363.755,290.74,363.755z"/>
		</g>
	</g>
	<g>
		<g>
			<path class="st1" d="M290.743,377.482h-67.222c-23.036,0-41.76,18.724-41.76,41.739v79.663h150.721v-79.663
				C332.482,396.206,313.759,377.482,290.743,377.482z"/>
		</g>
	</g>
	<g>
		<g>
			<rect x="194.196" y="448.679" class="st2" width="6.22" height="50.203"/>
		</g>
	</g>
	<g>
		<g>
			<rect x="313.811" y="448.679" class="st2" width="6.22" height="50.203"/>
		</g>
	</g>
	<g>
		<g>
			<polygon class="st4" points="239.648,366.866 252.292,390.505 266.471,390.505 279.115,366.866 			"/>
		</g>
	</g>
	<g>
		<g>
			<polygon class="st4" points="266.471,390.505 252.292,390.505 239.648,468.666 258.326,490.622 277.292,468.666 			"/>
		</g>
	</g>
	<g>
		<g>
			<g>
				<path class="st2" d="M234.458,363.755l15.97,29.861h17.906l15.97-29.861H234.458z M264.609,387.396h-10.455l-9.316-17.42h29.087
					L264.609,387.396z"/>
			</g>
		</g>
	</g>
	<g>
		<g>
			<g>
				<path class="st2" d="M269.181,387.396h-19.538l-13.295,82.192l21.96,25.813l22.26-25.766L269.181,387.396z M242.949,467.745
					l11.991-74.129h8.823l10.256,74.082l-15.675,18.145L242.949,467.745z"/>
			</g>
		</g>
	</g>
	<g>
		<g>
			<polygon class="st4" points="56.897,395.404 66.746,413.817 77.791,413.817 87.64,395.404 			"/>
		</g>
	</g>
	<g>
		<g>
			<polygon class="st4" points="77.791,413.817 66.746,413.817 56.897,474.7 71.447,491.802 86.22,474.7 			"/>
		</g>
	</g>
	<g>
		<g>
			<g>
				<path class="st2" d="M51.705,392.294l13.178,24.633h14.771l13.174-24.633H51.705z M75.929,410.706h-7.32l-6.52-12.192h20.36
					L75.929,410.706z"/>
			</g>
		</g>
	</g>
	<g>
		<g>
			<g>
				<path class="st2" d="M80.501,410.706H64.1l-10.503,64.916l17.833,20.959l18.066-20.913L80.501,410.706z M60.198,473.779
					l9.195-56.852h5.69l7.865,56.806l-11.481,13.291L60.198,473.779z"/>
			</g>
		</g>
	</g>
	<g>
		<g>
			<g>
				<path class="st2" d="M443.266,323.681c-20.631,0-37.416,16.784-37.416,37.416s16.784,37.417,37.416,37.417
					s37.418-16.786,37.418-37.417S463.897,323.681,443.266,323.681z M443.266,392.294c-17.201,0-31.195-13.996-31.195-31.197
					s13.994-31.195,31.195-31.195c17.201,0,31.197,13.994,31.197,31.195S460.467,392.294,443.266,392.294z"/>
			</g>
		</g>
	</g>
	<g>
		<g>
			<path class="st3" d="M443.267,336.737c-13.433,0-24.362,10.928-24.362,24.36c0,13.432,10.929,24.36,24.362,24.36
				c13.433,0,24.359-10.928,24.359-24.36C467.626,347.665,456.7,336.737,443.267,336.737z"/>
		</g>
	</g>
	<g>
		<g>
			<path class="st2" d="M467.846,392.294h-52.693c-24.347,0-44.155,19.807-44.155,44.154v62.433h6.22v-62.433
				c0-20.917,17.017-37.934,37.934-37.934h52.693c20.917,0,37.934,17.017,37.934,37.934v62.433H512v-62.433
				C512,412.101,492.193,392.294,467.846,392.294z"/>
		</g>
	</g>
	<g>
		<g>
			<path class="st1" d="M467.846,405.35h-52.694c-17.147,0-31.098,13.951-31.098,31.099v62.434h114.891v-62.434
				C498.945,419.301,484.993,405.35,467.846,405.35z"/>
		</g>
	</g>
	<g>
		<g>
			<rect x="391.5" y="459.53" class="st2" width="6.22" height="39.352"/>
		</g>
	</g>
	<g>
		<g>
			<rect x="485.257" y="459.53" class="st2" width="6.221" height="39.352"/>
		</g>
	</g>
	<g>
		<g>
			<polygon class="st4" points="427.895,395.404 437.744,413.817 448.789,413.817 458.637,395.404 			"/>
		</g>
	</g>
	<g>
		<g>
			<polygon class="st4" points="448.789,413.817 437.744,413.817 427.895,474.7 442.444,491.802 457.218,474.7 			"/>
		</g>
	</g>
	<g>
		<g>
			<g>
				<path class="st2" d="M422.703,392.294l13.178,24.633h14.771l13.174-24.633H422.703z M446.927,410.706h-7.32l-6.52-12.192h20.36
					L446.927,410.706z"/>
			</g>
		</g>
	</g>
	<g>
		<g>
			<g>
				<path class="st2" d="M451.499,410.706h-16.402l-10.503,64.916l17.831,20.959l18.066-20.913L451.499,410.706z M431.195,473.779
					l9.195-56.852h5.69l7.863,56.806l-11.481,13.291L431.195,473.779z"/>
			</g>
		</g>
	</g>
	<g>
		<g>
			<g>
				<path class="st2" d="M73.078,56.903c-27.395,0-49.68,22.286-49.68,49.678c0,27.393,22.286,49.679,49.68,49.679
					c27.393,0,49.678-22.286,49.678-49.679C122.756,79.188,100.47,56.903,73.078,56.903z M73.078,150.04
					c-23.964,0-43.46-19.495-43.46-43.459c0-23.962,19.495-43.458,43.46-43.458c23.962,0,43.458,19.496,43.458,43.458
					C116.536,130.544,97.04,150.04,73.078,150.04z"/>
			</g>
		</g>
	</g>
	<g>
		<g>
			<path class="st0" d="M73.078,70.38c-19.963,0-36.203,16.24-36.203,36.202c0,19.961,16.24,36.202,36.203,36.202
				c19.961,0,36.201-16.241,36.201-36.202C109.279,86.62,93.039,70.38,73.078,70.38z"/>
		</g>
	</g>
	<g>
		<g>
			<g>
				<path class="st2" d="M257.133,13.116c-51.541,0-93.472,41.931-93.472,93.471c0,51.53,41.931,93.452,93.472,93.452
					c51.529,0,93.45-41.922,93.45-93.452C350.583,55.047,308.662,13.116,257.133,13.116z M257.133,193.819
					c-48.111,0-87.252-39.132-87.252-87.232c0-48.11,39.141-87.251,87.252-87.251c48.099,0,87.23,39.141,87.23,87.251
					C344.363,154.687,305.232,193.819,257.133,193.819z"/>
			</g>
		</g>
	</g>
	<g>
		<g>
			<g>
				<path class="st2" d="M314.34,100.655l-20.492-8.074l8.806-20.159l-10.689-10.689l-20.182,8.768l-8.077-20.478h-13.234
					L242.434,70.5l-20.196-8.766l-7.409,7.409l-1.911,1.992l8.745,20.113l-20.453,8.035v13.238l20.457,8.056l-8.774,20.212
					l8.893,8.833l1.614,1.926l20.368-8.888l8.073,20.492h13.239l8.035-20.49l20.176,8.805l7.334-7.361l2.049-1.958l-8.824-20.221
					l20.49-8.035V100.655z M308.119,109.65l-22.555,8.844l9.687,22.195l-3.365,3.377l-22.205-9.69l-8.845,22.555h-4.759
					l-8.887-22.553l-22.177,9.679l-4.718-4.698l9.64-22.211l-22.507-8.864v-4.761l22.511-8.843l-9.655-22.199l3.357-3.357
					l22.225,9.646l8.843-22.528h4.762l8.883,22.527l22.203-9.645l4.696,4.696l-9.689,22.181l22.553,8.886V109.65z"/>
			</g>
		</g>
	</g>
	<g>
		<g>
			<path class="st0" d="M257.692,93.898c-7.216,0-13.042,5.847-13.042,13.042c0,7.174,5.826,13.021,13.042,13.021
				c7.195,0,13.042-5.847,13.042-13.021C270.734,99.745,264.887,93.898,257.692,93.898z"/>
		</g>
	</g>
	<g>
		<g>
			<g>
				<path class="st2" d="M441.498,56.903c-27.392,0-49.678,22.286-49.678,49.678c0,27.393,22.286,49.679,49.678,49.679
					c27.395,0,49.68-22.286,49.68-49.679C491.178,79.188,468.892,56.903,441.498,56.903z M441.498,150.04
					c-23.962,0-43.458-19.495-43.458-43.459c0-23.962,19.495-43.458,43.458-43.458c23.965,0,43.46,19.496,43.46,43.458
					C484.958,130.544,465.462,150.04,441.498,150.04z"/>
			</g>
		</g>
	</g>
	<g>
		<g>
			<path class="st0" d="M441.498,70.38c-19.961,0-36.201,16.24-36.201,36.202c0,19.961,16.24,36.202,36.201,36.202
				c19.963,0,36.203-16.241,36.203-36.202C477.701,86.62,461.461,70.38,441.498,70.38z"/>
		</g>
	</g>
	<g>
		<g>
			<g>
				<path class="st2" d="M69.968,234.015h6.22v-6.22h-6.22V234.015z M69.968,246.456h6.22v-6.22h-6.22V246.456z M69.968,258.897
					h6.22v-6.22h-6.22V258.897z M69.968,296.22h6.22v-6.22h-6.22V296.22z M69.968,271.338h6.22v-6.22h-6.22V271.338z
					 M69.968,283.779h6.22v-6.22h-6.22V283.779z M69.968,221.575h6.22v-6.22h-6.22V221.575z M69.968,171.811h6.22v-6.22h-6.22
					V171.811z M69.968,209.134h6.22v-6.22h-6.22V209.134z M69.968,153.15v6.22h6.22v-6.22H69.968z M69.968,196.693h6.22v-6.22h-6.22
					V196.693z M69.968,184.252h6.22v-6.22h-6.22V184.252z"/>
			</g>
		</g>
	</g>
	<g>
		<g>
			<g>
				<path class="st2" d="M439.447,258.897h6.22v-6.22h-6.22V258.897z M439.447,234.015h6.22v-6.22h-6.22V234.015z M439.447,246.456
					h6.22v-6.22h-6.22V246.456z M439.447,296.22h6.22v-6.22h-6.22V296.22z M439.447,283.779h6.22v-6.22h-6.22V283.779z
					 M439.447,271.338h6.22v-6.22h-6.22V271.338z M439.447,221.575h6.22v-6.22h-6.22V221.575z M439.447,184.252h6.22v-6.22h-6.22
					V184.252z M439.447,153.15v6.22h6.22v-6.22H439.447z M439.447,171.811h6.22v-6.22h-6.22V171.811z M439.447,196.693h6.22v-6.22
					h-6.22V196.693z M439.447,209.134h6.22v-6.22h-6.22V209.134z"/>
			</g>
		</g>
	</g>
	<g>
		<g>
			<g>
				<path class="st2" d="M256.272,252.824h6.22v-6.22h-6.22V252.824z M256.272,240.384h6.22v-6.22h-6.22V240.384z M256.272,215.502
					h6.22v-6.22h-6.22V215.502z M256.272,196.841v6.22h6.22v-6.22H256.272z M256.272,227.943h6.22v-6.22h-6.22V227.943z"/>
			</g>
		</g>
	</g>
	<g>
		<g>
			<rect x="69.769" y="91.625" class="st2" width="6.22" height="29.651"/>
		</g>
	</g>
	<g>
		<g>
			<rect x="58.053" y="103.34" class="st2" width="29.652" height="6.22"/>
		</g>
	</g>
	<g>
		<g>
			<rect x="439.447" y="91.625" class="st2" width="6.22" height="29.651"/>
		</g>
	</g>
	<g>
		<g>
			<rect x="427.731" y="103.34" class="st2" width="29.652" height="6.22"/>
		</g>
	</g>
	<g>
		<g>
			<g>
				<path class="st2" d="M257.692,90.788c-8.907,0-16.153,7.246-16.153,16.153c0,8.894,7.245,16.131,16.153,16.131
					c8.907,0,16.152-7.237,16.152-16.131C273.844,98.034,266.599,90.788,257.692,90.788z M257.692,116.851
					c-5.478,0-9.932-4.446-9.932-9.911c0-5.476,4.455-9.932,9.932-9.932c5.477,0,9.932,4.456,9.932,9.932
					C267.624,112.406,263.169,116.851,257.692,116.851z"/>
			</g>
		</g>
	</g>
</g>
</svg>
